<?xml version="1.0" encoding="utf-8"?>
<svg width="635.5" height="718.469" viewBox="0 0 635.5 718.469" fill="none" xmlns="http://www.w3.org/2000/svg">
  <g>
    <path d="M0 98.5001C0 98.5001 53.2501 83.1251 94.0003 58.5001C134.75 33.875 163 0 163 0L339.501 186.5C339.501 186.5 363.5 216.937 363.5 246.937C363.5 276.938 343.5 302.5 343.5 302.5C343.5 302.5 321.875 327.875 296 335.5C270.125 343.125 240 333 240 333C240 333 227.625 331 209.5 316.5C191.375 302 167.5 275 167.5 275L0 98.5001Z" fill="#F4AB28" fill-rule="evenodd" transform="translate(272 380)" />
    <path d="M0 598.97L0 632.47C0 632.47 0.625001 650.72 8.00001 665.97C15.375 681.221 29.5 693.47 29.5 693.47C29.5 693.47 42.375 705.47 57.5 711.47C72.6251 717.47 90.0001 717.47 90.0001 717.47C90.0001 717.47 110.5 717.22 128 708.47C145.5 699.719 160 682.47 160 682.47C160 682.47 169.25 671.971 174 658.97C178.75 645.97 179 630.47 179 630.47L179 84.9684C179 84.9684 179.375 62.4683 168 43.9683C156.625 25.4683 133.5 10.9682 133.5 10.9682C133.5 10.9682 115.5 2.30135 98 0.426346C80.5 -1.44866 63.5 3.46821 63.5 3.46821C63.5 3.46821 35.75 13.6864 20 31.9258C4.25 50.1652 0.5 76.4258 0.5 76.4258L0 598.97Z" fill="#4584ED" fill-rule="evenodd" transform="translate(0 1)" />
    <path d="M0 598.117L0 446.117C0 446.117 4.00001 404.491 23 371.116C42.0001 337.741 76.0001 312.616 76.0001 312.616C76.0001 312.616 94.8751 299.866 120.5 289.616C146.125 279.366 178.5 271.616 178.5 271.616C178.5 271.616 213.125 262.116 241.5 247.116C269.875 232.116 292.001 211.616 292.001 211.616L376.501 127.616L463.001 41.116C463.001 41.116 488.626 13.3594 515.501 4.10941C542.376 -5.1406 570.501 4.11598 570.501 4.11598C570.501 4.11598 590.126 10.3611 604.001 22.6094C617.876 34.8577 626.001 53.1094 626.001 53.1094C626.001 53.1094 636.625 79.3594 632.5 102.609C628.375 125.859 609.501 146.109 609.501 146.109L522.5 231.609L391.5 361.109C391.5 361.109 341.25 408.484 288 432.109C234.75 455.734 178.5 455.609 178.5 455.609C178.5 455.609 146.125 458.859 120.5 466.609C94.875 474.359 76 486.609 76 486.609C76 486.609 46.5 504.233 27.5 532.109C8.5 559.986 0 598.117 0 598.117Z" fill="#52AE65" fill-rule="evenodd" />
  </g>
</svg>